<?xml version="1.0" encoding="UTF-8"?>
<svg version="1.1" xmlns="http://www.w3.org/2000/svg" width="487" height="202">
<path d="M0 0 C160.71 0 321.42 0 487 0 C487 66.66 487 133.32 487 202 C326.29 202 165.58 202 0 202 C0 135.34 0 68.68 0 0 Z " fill="#000000" transform="translate(0,0)"/>
<path d="M0 0 C6.93 0 13.86 0 21 0 C21 48.51 21 97.02 21 147 C16.05 147 11.1 147 6 147 C4.35 144.03 2.7 141.06 1 138 C0.26136719 138.47050781 -0.47726562 138.94101563 -1.23828125 139.42578125 C-13.79276234 147.13075503 -25.73641884 150.22754622 -40.49609375 147.30859375 C-53.14054973 143.74908258 -63.97582397 137.07770438 -71.01171875 125.765625 C-78.67008393 111.31587937 -82.19983394 93.64089809 -77.875 77.5 C-77.30442441 75.97846509 -76.6770639 74.47723034 -76 73 C-75.5978125 72.113125 -75.195625 71.22625 -74.78125 70.3125 C-68.05210737 56.85421474 -57.16988449 46.72329483 -42.8125 41.9375 C-38.84510663 40.96191147 -35.18058079 40.69286539 -31.125 40.75 C-30.42173584 40.75749268 -29.71847168 40.76498535 -28.99389648 40.77270508 C-19.48538538 40.96917553 -13.0555951 43.04610301 -5 48 C-3.35 48.99 -1.7 49.98 0 51 C0 34.17 0 17.34 0 0 Z " fill="#FAFAFA" transform="translate(352,25)"/>
<path d="M0 0 C10.52667004 7.12365171 17.69695395 18.04086231 21.50390625 30.109375 C22.83931093 37.2213588 24.51794842 49.08910317 21.1875 55.75 C-3.2325 55.75 -27.6525 55.75 -52.8125 55.75 C-48.40869814 68.45069443 -48.40869814 68.45069443 -38.625 76.125 C-31.15159848 79.51530049 -22.75920895 80.31862744 -14.84375 77.80859375 C-11.01848366 75.97085284 -8.38355348 74.48267239 -5.7421875 71.09375 C-1.26980657 67.51584526 2.95599094 68.206943 8.5 68.4375 C9.52673828 68.46005859 10.55347656 68.48261719 11.61132812 68.50585938 C14.1382179 68.56462425 16.66210255 68.64672151 19.1875 68.75 C17.64013845 77.43812161 12.15723731 84.74524716 5.3671875 90.25390625 C1.53034051 92.88744101 -2.55335524 94.89487496 -6.8125 96.75 C-7.59238281 97.10449219 -8.37226563 97.45898438 -9.17578125 97.82421875 C-22.0330862 102.33856138 -35.77131499 100.39803109 -47.8125 94.75 C-58.08683974 89.25694185 -65.63111774 81.12809406 -70.8125 70.75 C-71.43511719 69.54923828 -71.43511719 69.54923828 -72.0703125 68.32421875 C-77.0627339 56.541406 -76.94275317 39.05628968 -73.25 26.875 C-72.12890625 24.234375 -72.12890625 24.234375 -70.8125 21.75 C-70.32652344 20.82703125 -69.84054687 19.9040625 -69.33984375 18.953125 C-62.10925357 6.57736308 -51.79562777 -2.77780395 -37.86279297 -6.81494141 C-24.56138484 -9.63741215 -11.50814674 -6.81444462 0 0 Z " fill="#FBFBFB" transform="translate(454.8125,73.25)"/>
<path d="M0 0 C7.26 0 14.52 0 22 0 C22 21.78 22 43.56 22 66 C22.66 66 23.32 66 24 66 C24.27457031 65.41081787 24.54914062 64.82163574 24.83203125 64.21459961 C25.95515919 62.08502319 27.15340791 60.41388394 28.6875 58.56640625 C29.21609619 57.92437256 29.74469238 57.28233887 30.28930664 56.62084961 C30.85383545 55.94159424 31.41836426 55.26233887 32 54.5625 C36.94804818 48.54504596 41.7600565 42.45667187 46.484375 36.26171875 C49.20460976 32.71269614 52.00714698 29.23186313 54.8125 25.75 C59.94952988 19.37117091 64.94688227 12.89283764 69.8996582 6.37011719 C70.42132568 5.68336914 70.94299316 4.99662109 71.48046875 4.2890625 C72.17499146 3.37181396 72.17499146 3.37181396 72.88354492 2.43603516 C74 1 74 1 75 0 C76.99964982 -0.08758003 79.0023611 -0.10696576 81.00390625 -0.09765625 C82.21884766 -0.09443359 83.43378906 -0.09121094 84.68554688 -0.08789062 C85.96494141 -0.07951172 87.24433594 -0.07113281 88.5625 -0.0625 C89.84576172 -0.05798828 91.12902344 -0.05347656 92.45117188 -0.04882812 C95.63416022 -0.03699545 98.81705762 -0.02051068 102 0 C98.64877546 4.51270048 95.26762852 8.9772408 91.6875 13.3125 C90.91148438 14.25480469 90.13546875 15.19710937 89.3359375 16.16796875 C88.17964844 17.56982422 88.17964844 17.56982422 87 19 C85.60345916 20.707755 84.20763156 22.4160935 82.8125 24.125 C78.27505984 29.67164314 73.71835093 35.2023402 69.16015625 40.73193359 C65.86633915 44.72889509 62.58294603 48.73386879 59.3125 52.75 C54.28899445 58.90142473 49.14539478 64.95055455 44 71 C45.68339424 75.05995082 48.51143877 78.11277813 51.375 81.375 C52.46757105 82.63400774 53.56001551 83.89312534 54.65234375 85.15234375 C55.21034668 85.79284668 55.76834961 86.43334961 56.34326172 87.09326172 C58.89197361 90.02657145 61.41338497 92.98303302 63.9375 95.9375 C68.10732541 100.80707979 72.29799869 105.65816979 76.5 110.5 C82.19558508 117.06387139 87.86816012 123.64684425 93.51074219 130.25634766 C94.5365084 131.45733491 95.56325929 132.65748161 96.59082031 133.85693359 C98.14638328 135.67333503 99.69861092 137.49253331 101.25 139.3125 C101.72840332 139.87018066 102.20680664 140.42786133 102.69970703 141.00244141 C106 144.88564326 106 144.88564326 106 146 C83.40478756 148.36707125 83.40478756 148.36707125 76.59033203 144.70507812 C72.65984344 141.38221548 69.89123203 137.28609845 67.20996094 132.92724609 C65.53149261 130.25375357 63.54247127 127.90226603 61.5 125.5 C60.79617187 124.63117188 60.09234375 123.76234375 59.3671875 122.8671875 C55.96497587 118.74635691 52.45259519 114.72441181 48.9440918 110.6940918 C40.14831505 100.58516803 31.57881694 90.29458033 23 80 C22.67 101.78 22.34 123.56 22 146 C14.74 146 7.48 146 0 146 C0 97.82 0 49.64 0 0 Z " fill="#FCFCFC" transform="translate(29,25)"/>
<path d="M0 0 C9.0022119 7.36234028 13.40284238 16.15431667 15.87109375 27.43359375 C16.3688288 32.97389643 16.34170518 38.45828258 16.26171875 44.015625 C16.25423688 45.56645469 16.24855319 47.11729398 16.24456787 48.6681366 C16.22946416 52.70422544 16.19031933 56.7397171 16.14575195 60.77557373 C16.10446489 64.91214932 16.08648629 69.04882361 16.06640625 73.18554688 C16.02380568 81.26853066 15.95358621 89.35091859 15.87109375 97.43359375 C8.94109375 97.43359375 2.01109375 97.43359375 -5.12890625 97.43359375 C-5.14348877 95.47615234 -5.15807129 93.51871094 -5.1730957 91.50195312 C-5.22488277 85.01184561 -5.29020485 78.52198288 -5.36462116 72.03209686 C-5.40922024 68.09986955 -5.44849883 64.16774335 -5.4753418 60.23535156 C-5.50147997 56.43556414 -5.54195509 52.636168 -5.59209251 48.83662415 C-5.60869057 47.3919209 -5.62024861 45.94715009 -5.62652016 44.50236511 C-5.67501831 34.35063801 -6.09308559 25.74677666 -13.34765625 17.9765625 C-19.22799519 12.88284785 -25.63936135 11.74873913 -33.26953125 12.05859375 C-40.61850932 13.02239415 -44.83340757 16.66562021 -49.5859375 22.140625 C-54.83118 29.93545373 -54.60130798 37.46315191 -54.640625 46.5546875 C-54.65748932 48.02443425 -54.67564191 49.49416673 -54.69502258 50.96388245 C-54.74233889 54.81232239 -54.77226645 58.66070446 -54.79846191 62.50933838 C-54.82836075 66.44449285 -54.87485881 70.37944827 -54.91992188 74.31445312 C-55.00574565 82.02073416 -55.07318324 89.72703 -55.12890625 97.43359375 C-58.44138812 97.46247521 -61.75383792 97.48035174 -65.06640625 97.49609375 C-66.01193359 97.50447266 -66.95746094 97.51285156 -67.93164062 97.52148438 C-69.28032227 97.52631836 -69.28032227 97.52631836 -70.65625 97.53125 C-71.48890381 97.53648682 -72.32155762 97.54172363 -73.17944336 97.54711914 C-75.12890625 97.43359375 -75.12890625 97.43359375 -76.12890625 96.43359375 C-76.22421788 95.08018785 -76.25079345 93.72185391 -76.24916077 92.36509705 C-76.25053543 91.48865036 -76.2519101 90.61220367 -76.25332642 89.709198 C-76.24973114 88.74031647 -76.24613586 87.77143494 -76.24243164 86.77319336 C-76.24257767 85.75867599 -76.24272369 84.74415863 -76.24287415 83.69889832 C-76.24217454 80.32789002 -76.23437993 76.95693621 -76.2265625 73.5859375 C-76.22469849 71.25566132 -76.22327451 68.92538475 -76.22227478 66.59510803 C-76.21844827 60.4482211 -76.20861685 54.30135762 -76.1975708 48.15447998 C-76.18735954 41.88749509 -76.18277777 35.62050643 -76.17773438 29.35351562 C-76.1669947 17.04686467 -76.14991669 4.74023116 -76.12890625 -7.56640625 C-71.17890625 -7.56640625 -66.22890625 -7.56640625 -61.12890625 -7.56640625 C-57.12890625 -0.94140625 -57.12890625 -0.94140625 -57.12890625 2.43359375 C-56.37867188 1.89089844 -55.6284375 1.34820312 -54.85546875 0.7890625 C-37.78602976 -11.14234637 -17.29568676 -12.72581723 0 0 Z " fill="#F9F9F9" transform="translate(249.12890625,74.56640625)"/>
<path d="M0 0 C7.33104097 5.38444469 11.87206625 12.16089059 14 21 C15.15534312 31.39808811 14.56386835 41.42531837 8.421875 50.2734375 C3.05038212 56.78213833 -3.57971492 62.3712734 -12.19921875 63.37109375 C-22.35505996 63.56443003 -29.23230428 61.67696908 -36.8125 54.8125 C-44.85183201 46.12698055 -46.51982412 36.24191343 -46.265625 24.7890625 C-45.54874574 14.56299068 -40.39182174 7.8299434 -33 1 C-23.19112378 -6.26086735 -10.46596009 -5.71292792 0 0 Z " fill="#010101" transform="translate(340,90)"/>
<path d="M0 0 C6.93 0 13.86 0 21 0 C21 34.65 21 69.3 21 105 C14.07 105 7.14 105 0 105 C0 70.35 0 35.7 0 0 Z " fill="#F6F6F6" transform="translate(141,67)"/>
<path d="M0 0 C6.71735337 3.80294609 11.55151477 8.88986299 14.21484375 16.25390625 C14.21484375 18.23390625 14.21484375 20.21390625 14.21484375 22.25390625 C-3.93515625 22.25390625 -22.08515625 22.25390625 -40.78515625 22.25390625 C-39.45009726 12.90849329 -37.24724549 7.67267015 -29.83984375 1.73046875 C-20.94448413 -4.66201402 -9.77454895 -4.54667026 0 0 Z " fill="#020202" transform="translate(442.78515625,88.74609375)"/>
<path d="M0 0 C3.43761572 2.12108204 5.77560839 4.1042085 7 8 C7.48459952 13.23367486 6.82735806 16.55700877 4 21 C1.03484986 24.30728285 -2.48138885 24.78488989 -6.75 25.12890625 C-10.40851058 24.91930408 -12.33638812 23.40993456 -15 21 C-18.13971457 17.33699967 -18.57806136 13.90434067 -18.421875 9.21875 C-17.68670338 5.35229187 -15.860022 3.6650205 -13 1 C-8.63181424 -1.69296401 -4.84939477 -1.20368906 0 0 Z " fill="#F9F9F9" transform="translate(157,26)"/>
</svg>
